# Blender v2.82 (sub 7) OBJ File: 'Building_3.blend'
# www.blender.org
mtllib Building_3.mtl
o Cube.008_Cube.015
v 7.445194 5.057978 -6.730711
v 7.445194 5.527531 -6.730711
v 7.445194 5.057978 6.730711
v 7.445194 5.527531 6.730711
v -7.445194 5.057978 -6.730711
v -7.445194 5.527531 -6.730711
v -7.445194 5.057978 6.730711
v -7.445194 5.527531 6.730711
v 6.638238 0.005561 -6.220895
v 6.638238 0.475114 -6.220895
v 6.638238 0.005561 6.220895
v 6.638238 0.475114 6.220895
v -6.638238 0.005561 -6.220895
v -6.638238 0.475114 -6.220895
v -6.638238 0.005561 6.220895
v -6.638238 0.475114 6.220895
v -6.633026 0.474453 6.211005
v -6.633026 2.837140 6.211005
v -6.633026 0.474453 -6.210569
v -6.633026 2.837140 -6.210569
v -6.384967 0.474453 6.211005
v -6.384967 2.837140 6.211005
v -6.384967 0.474453 -6.210569
v -6.384967 2.837140 -6.210569
v -6.633026 2.837140 2.450322
v -6.384967 2.837140 2.450322
v -6.384967 2.837140 0.700417
v -6.633026 2.837140 0.700424
v -6.633026 5.069154 0.700424
v -6.633026 5.069154 -6.210569
v -6.384967 5.069154 -6.210569
v -6.384967 5.069154 2.450322
v -6.384967 5.069154 6.211005
v -6.633026 5.069154 6.211005
v -6.633026 5.069154 2.450322
v -6.384967 5.069154 0.700417
v 6.376237 0.474453 6.211005
v 6.376237 5.051289 6.211005
v 6.376237 0.474453 -6.210569
v 6.376237 5.051289 -6.210569
v 6.624296 0.474453 6.211005
v 6.624296 5.051289 6.211005
v 6.624296 0.474453 -6.210569
v 6.624296 5.051289 -6.210569
v 6.395154 0.474453 -5.965340
v 6.395154 5.063347 -5.965340
v -6.379156 0.474453 -5.964800
v -6.379156 5.063347 -5.964800
v 6.395143 0.474453 -6.213398
v 6.395143 5.063347 -6.213398
v -6.379167 0.474453 -6.212859
v -6.379167 5.063347 -6.212859
v -0.666516 0.474453 6.202672
v -0.666516 2.837140 6.202672
v -6.379411 0.474453 6.203126
v -6.379411 2.837140 6.203126
v -0.666527 0.474453 5.954614
v -0.666527 2.837140 5.954614
v -6.379422 0.474453 5.955068
v -6.379422 2.837140 5.955068
v 6.380958 0.474453 6.202672
v 6.380958 2.837140 6.202672
v 0.668063 0.474453 6.203126
v 0.668063 2.837140 6.203126
v 6.380948 0.474453 5.954614
v 6.380948 2.837140 5.954614
v 0.668053 0.474453 5.955068
v 0.668053 2.837140 5.955068
v 6.406916 2.608484 -3.498940
v 6.406916 2.796869 -3.498940
v 6.406916 2.608484 5.967311
v 6.406916 2.796869 5.967311
v -6.406555 2.608484 -3.192267
v -6.406555 2.796869 -3.192267
v -6.406555 2.608484 5.967311
v -6.406555 2.796869 5.967311
v -1.997541 2.608484 -3.498940
v -1.997562 2.796869 -3.498940
v -1.997562 2.796869 -6.207808
v -6.406555 2.796869 -6.207808
v -6.406555 2.608484 -6.207808
v -1.997541 2.608484 -6.207808
v -1.997541 2.608484 -5.969571
v -1.997562 2.796869 -5.969570
v 6.444633 2.796869 -6.207808
v 6.444654 2.608484 -6.207808
v 6.444633 2.796869 -5.969570
v 6.444654 2.608484 -5.969571
v -2.046527 2.503599 -3.545073
v -2.147906 2.763691 -3.545073
v -2.046527 2.503599 -6.125104
v -2.147907 2.763692 -6.125104
v 3.820249 0.254073 -3.545073
v 4.093897 0.332007 -3.545073
v 3.820249 0.254073 -6.125104
v 4.093898 0.332006 -6.125104
v -6.428744 2.607765 5.930195
v -6.428744 5.063040 5.930195
v 6.426086 2.607765 5.929816
v 6.426086 5.063040 5.929816
v -6.428736 2.607765 6.195456
v -6.428736 5.063040 6.195456
v 6.426094 2.607765 6.195077
v 6.426094 5.063040 6.195077
v 6.638238 2.542111 6.146929
v 6.638238 3.011664 6.146929
v 6.638238 2.542111 6.328678
v 6.638238 3.011664 6.328678
v -6.638238 2.542111 6.146929
v -6.631719 3.011664 6.146929
v -6.638238 2.542111 6.328678
v -6.632868 3.013383 6.337866
v 6.638238 2.542111 -6.358468
v 6.638238 3.011664 -6.358468
v 6.638238 2.542111 -6.176719
v 6.638238 3.011664 -6.176719
v -6.638238 2.542111 -6.358468
v -6.627497 3.015101 -6.347054
v -6.638238 2.542111 -6.176719
v -6.624743 3.011664 -6.176719
v -6.627497 2.545548 -6.347054
v -6.627497 2.545548 6.347054
v -6.761332 2.545548 -6.347054
v -6.761332 3.015101 -6.347054
v -6.761332 2.545548 6.347054
v -6.761332 3.015101 6.347054
v 6.766591 2.521067 -6.347054
v 6.766591 2.990621 -6.347054
v 6.766591 2.521067 6.347054
v 6.766591 2.990621 6.347054
v 6.632756 2.521067 -6.347054
v 6.632756 2.990621 -6.347054
v 6.632756 2.521067 6.347054
v 6.632756 2.990621 6.347054
v -6.663590 2.787774 -6.388404
v -6.663590 2.994201 -6.360577
v -6.663590 2.787774 6.262588
v -6.663590 2.994201 6.262588
v -8.317560 2.787774 -6.363229
v -8.317560 2.994201 -6.363229
v -8.306534 2.787774 6.262588
v -8.306534 2.994201 6.262588
v 8.484934 2.787774 -6.338335
v 8.484934 2.994201 -6.338335
v 8.484898 2.787774 -7.981280
v 8.484898 2.994201 -7.981280
v -8.328623 2.787774 -7.980999
v -8.328623 2.994201 -7.980999
v 8.466545 2.836804 -6.374219
v 8.466545 3.033374 -6.375597
v 8.466545 0.004867 5.411145
v 8.466545 0.099175 5.474170
v 6.823601 2.836804 -6.374219
v 6.823601 3.033374 -6.375597
v 6.823601 0.004867 5.411145
v 6.823601 0.099175 5.474170
v 0.834461 0.235019 6.191799
v 0.834461 0.431589 6.190423
v 0.834461 -0.058344 6.893832
v 0.834461 0.038605 6.956857
v -0.808484 0.235019 6.191799
v -0.808484 0.431589 6.190423
v -0.808484 -0.058344 6.893832
v -0.808484 0.038605 6.956857
v 6.783859 2.787774 7.900190
v 6.783859 2.994201 7.900190
v -8.328587 2.787774 7.900470
v -8.328587 2.994201 7.900470
v 6.783823 2.787774 6.257246
v 6.783823 2.994201 6.257246
v -8.328623 2.787774 6.257526
v -8.328623 2.994201 6.257526
vt 0.625000 0.500000
vt 0.875000 0.500000
vt 0.875000 0.750000
vt 0.625000 0.750000
vt 0.375000 0.750000
vt 0.625000 1.000000
vt 0.375000 1.000000
vt 0.375000 0.000000
vt 0.625000 0.000000
vt 0.625000 0.250000
vt 0.375000 0.250000
vt 0.125000 0.500000
vt 0.375000 0.500000
vt 0.125000 0.750000
vt 0.625000 0.500000
vt 0.875000 0.500000
vt 0.875000 0.750000
vt 0.625000 0.750000
vt 0.375000 0.750000
vt 0.625000 1.000000
vt 0.375000 1.000000
vt 0.375000 0.000000
vt 0.625000 0.000000
vt 0.625000 0.250000
vt 0.375000 0.250000
vt 0.125000 0.500000
vt 0.375000 0.500000
vt 0.125000 0.750000
vt 0.375000 0.000000
vt 0.625000 0.000000
vt 0.625000 0.057360
vt 0.625000 0.110907
vt 0.625000 0.250000
vt 0.375000 0.250000
vt 0.625000 0.500000
vt 0.375000 0.500000
vt 0.625000 0.639092
vt 0.625000 0.692640
vt 0.625000 0.750000
vt 0.375000 0.750000
vt 0.625000 1.000000
vt 0.375000 1.000000
vt 0.125000 0.500000
vt 0.125000 0.750000
vt 0.875000 0.639093
vt 0.625000 0.639092
vt 0.875000 0.639093
vt 0.625000 0.692640
vt 0.625000 0.750000
vt 0.875000 0.692640
vt 0.625000 0.500000
vt 0.875000 0.500000
vt 0.875000 0.692640
vt 0.875000 0.750000
vt 0.625000 0.110907
vt 0.625000 0.250000
vt 0.625000 1.000000
vt 0.625000 0.000000
vt 0.625000 0.057360
vt 0.375000 0.000000
vt 0.625000 0.000000
vt 0.625000 0.250000
vt 0.375000 0.250000
vt 0.625000 0.500000
vt 0.375000 0.500000
vt 0.625000 0.750000
vt 0.375000 0.750000
vt 0.625000 1.000000
vt 0.375000 1.000000
vt 0.125000 0.500000
vt 0.125000 0.750000
vt 0.875000 0.500000
vt 0.875000 0.750000
vt 0.375000 0.000000
vt 0.625000 0.000000
vt 0.625000 0.250000
vt 0.375000 0.250000
vt 0.625000 0.500000
vt 0.375000 0.500000
vt 0.625000 0.750000
vt 0.375000 0.750000
vt 0.625000 1.000000
vt 0.375000 1.000000
vt 0.125000 0.500000
vt 0.125000 0.750000
vt 0.875000 0.500000
vt 0.875000 0.750000
vt 0.375000 0.000000
vt 0.625000 0.000000
vt 0.625000 0.250000
vt 0.375000 0.250000
vt 0.625000 0.500000
vt 0.375000 0.500000
vt 0.625000 0.750000
vt 0.375000 0.750000
vt 0.625000 1.000000
vt 0.375000 1.000000
vt 0.125000 0.500000
vt 0.125000 0.750000
vt 0.875000 0.500000
vt 0.875000 0.750000
vt 0.375000 0.000000
vt 0.625000 0.000000
vt 0.625000 0.250000
vt 0.375000 0.250000
vt 0.625000 0.500000
vt 0.375000 0.500000
vt 0.625000 0.750000
vt 0.375000 0.750000
vt 0.625000 1.000000
vt 0.375000 1.000000
vt 0.125000 0.500000
vt 0.125000 0.750000
vt 0.875000 0.500000
vt 0.875000 0.750000
vt 0.625000 0.500000
vt 0.787614 0.500000
vt 0.875000 0.500000
vt 0.875000 0.750000
vt 0.625000 0.750000
vt 0.375000 0.750000
vt 0.625000 1.000000
vt 0.375000 1.000000
vt 0.375000 0.000000
vt 0.625000 0.000000
vt 0.625000 0.250000
vt 0.375000 0.250000
vt 0.125000 0.500000
vt 0.212385 0.500000
vt 0.375000 0.500000
vt 0.125000 0.750000
vt 0.625000 0.250000
vt 0.375000 0.250000
vt 0.375000 0.337385
vt 0.625000 0.337386
vt 0.625000 0.337386
vt 0.375000 0.337385
vt 0.375000 0.337385
vt 0.625000 0.337386
vt 0.125000 0.500000
vt 0.212385 0.500000
vt 0.212385 0.500000
vt 0.787614 0.500000
vt 0.787614 0.500000
vt 0.875000 0.500000
vt 0.625000 0.337386
vt 0.375000 0.337385
vt 0.375000 0.337385
vt 0.625000 0.337386
vt 0.787614 0.500000
vt 0.787614 0.500000
vt 0.212385 0.500000
vt 0.212385 0.500000
vt 0.375000 0.000000
vt 0.625000 0.000000
vt 0.625000 0.250000
vt 0.375000 0.250000
vt 0.625000 0.500000
vt 0.375000 0.500000
vt 0.625000 0.750000
vt 0.375000 0.750000
vt 0.625000 1.000000
vt 0.375000 1.000000
vt 0.125000 0.500000
vt 0.125000 0.750000
vt 0.875000 0.500000
vt 0.875000 0.750000
vt 0.375000 0.000000
vt 0.625000 0.000000
vt 0.625000 0.250000
vt 0.375000 0.250000
vt 0.625000 0.500000
vt 0.375000 0.500000
vt 0.625000 0.750000
vt 0.375000 0.750000
vt 0.625000 1.000000
vt 0.375000 1.000000
vt 0.125000 0.500000
vt 0.125000 0.750000
vt 0.875000 0.500000
vt 0.875000 0.750000
vt 0.625000 0.500000
vt 0.875000 0.500000
vt 0.875000 0.750000
vt 0.625000 0.750000
vt 0.375000 0.750000
vt 0.625000 1.000000
vt 0.375000 1.000000
vt 0.375000 0.000000
vt 0.625000 0.000000
vt 0.625000 0.250000
vt 0.375000 0.250000
vt 0.125000 0.500000
vt 0.375000 0.500000
vt 0.125000 0.750000
vt 0.625000 0.500000
vt 0.875000 0.500000
vt 0.875000 0.750000
vt 0.625000 0.750000
vt 0.375000 0.750000
vt 0.625000 1.000000
vt 0.375000 1.000000
vt 0.375000 0.000000
vt 0.625000 0.000000
vt 0.625000 0.250000
vt 0.375000 0.250000
vt 0.125000 0.500000
vt 0.375000 0.500000
vt 0.125000 0.750000
vt 0.625000 0.500000
vt 0.875000 0.500000
vt 0.875000 0.750000
vt 0.625000 0.750000
vt 0.375000 0.750000
vt 0.625000 1.000000
vt 0.375000 1.000000
vt 0.375000 0.000000
vt 0.625000 0.000000
vt 0.625000 0.250000
vt 0.375000 0.250000
vt 0.125000 0.500000
vt 0.375000 0.500000
vt 0.125000 0.750000
vt 0.625000 0.500000
vt 0.875000 0.500000
vt 0.875000 0.750000
vt 0.625000 0.750000
vt 0.375000 0.750000
vt 0.625000 1.000000
vt 0.375000 1.000000
vt 0.375000 0.000000
vt 0.625000 0.000000
vt 0.625000 0.250000
vt 0.375000 0.250000
vt 0.125000 0.500000
vt 0.375000 0.500000
vt 0.125000 0.750000
vt 0.625000 0.500000
vt 0.875000 0.500000
vt 0.875000 0.750000
vt 0.625000 0.750000
vt 0.375000 0.750000
vt 0.625000 1.000000
vt 0.375000 1.000000
vt 0.375000 0.000000
vt 0.625000 0.000000
vt 0.625000 0.250000
vt 0.375000 0.250000
vt 0.125000 0.500000
vt 0.375000 0.500000
vt 0.125000 0.750000
vt 0.625000 0.500000
vt 0.875000 0.500000
vt 0.875000 0.750000
vt 0.625000 0.750000
vt 0.375000 0.750000
vt 0.625000 1.000000
vt 0.375000 1.000000
vt 0.375000 0.000000
vt 0.625000 0.000000
vt 0.625000 0.250000
vt 0.375000 0.250000
vt 0.125000 0.500000
vt 0.375000 0.500000
vt 0.125000 0.750000
vt 0.625000 0.500000
vt 0.875000 0.500000
vt 0.875000 0.750000
vt 0.625000 0.750000
vt 0.375000 0.750000
vt 0.625000 1.000000
vt 0.375000 1.000000
vt 0.375000 0.000000
vt 0.625000 0.000000
vt 0.625000 0.250000
vt 0.375000 0.250000
vt 0.125000 0.500000
vt 0.375000 0.500000
vt 0.125000 0.750000
vt 0.625000 0.500000
vt 0.875000 0.500000
vt 0.875000 0.750000
vt 0.625000 0.750000
vt 0.375000 0.750000
vt 0.625000 1.000000
vt 0.375000 1.000000
vt 0.375000 0.000000
vt 0.625000 0.000000
vt 0.625000 0.250000
vt 0.375000 0.250000
vt 0.125000 0.500000
vt 0.375000 0.500000
vt 0.125000 0.750000
vt 0.625000 0.500000
vt 0.875000 0.500000
vt 0.875000 0.750000
vt 0.625000 0.750000
vt 0.375000 0.750000
vt 0.625000 1.000000
vt 0.375000 1.000000
vt 0.375000 0.000000
vt 0.625000 0.000000
vt 0.625000 0.250000
vt 0.375000 0.250000
vt 0.125000 0.500000
vt 0.375000 0.500000
vt 0.125000 0.750000
vn 0.0000 1.0000 0.0000
vn 0.0000 0.0000 -1.0000
vn 1.0000 0.0000 0.0000
vn 0.0000 -1.0000 0.0000
vn -1.0000 0.0000 0.0000
vn 0.0000 0.0000 1.0000
vn 0.0001 0.0000 1.0000
vn -0.0001 0.0000 -1.0000
vn -1.0000 -0.0001 0.0000
vn -0.9317 -0.3632 0.0000
vn 0.2739 -0.9618 0.0000
vn -0.3580 -0.9337 0.0000
vn 0.3630 0.9318 -0.0000
vn -0.0003 0.0098 -1.0000
vn 0.9999 -0.0127 0.0031
vn -0.0001 -1.0000 0.0046
vn 0.9996 -0.0256 -0.0081
vn -0.0001 -1.0000 -0.0098
vn 0.0004 -0.0121 0.9999
vn -0.0351 -0.0100 -0.9993
vn -0.0066 -1.0000 -0.0001
vn -1.0000 -0.0057 -0.0002
vn 1.0000 0.0000 -0.0009
vn 0.0068 -0.0672 0.9977
vn 1.0000 0.0000 -0.0068
vn 0.0015 0.0000 -1.0000
vn 0.0000 0.9723 0.2336
vn 0.0000 0.5556 -0.8314
vn 0.0000 -0.9707 -0.2404
vn 0.0000 0.0070 1.0000
vn 0.0000 0.9227 0.3856
vn 0.0000 0.5450 -0.8384
vn 0.0000 -0.8898 -0.4563
usemtl Material.002
s off
f 1/1/1 5/2/1 7/3/1 3/4/1
f 4/5/2 3/4/2 7/6/2 8/7/2
f 8/8/3 7/9/3 5/10/3 6/11/3
f 6/12/4 2/13/4 4/5/4 8/14/4
f 2/13/5 1/1/5 3/4/5 4/5/5
f 6/11/6 5/10/6 1/1/6 2/13/6
usemtl Material
f 9/15/1 13/16/1 15/17/1 11/18/1
f 12/19/2 11/18/2 15/20/2 16/21/2
f 16/22/3 15/23/3 13/24/3 14/25/3
f 14/26/4 10/27/4 12/19/4 16/28/4
f 10/27/5 9/15/5 11/18/5 12/19/5
f 14/25/6 13/24/6 9/15/6 10/27/6
f 17/29/5 18/30/5 25/31/5 28/32/5 20/33/5 19/34/5
f 19/34/2 20/33/2 24/35/2 23/36/2
f 23/36/3 24/35/3 27/37/3 26/38/3 22/39/3 21/40/3
f 21/40/6 22/39/6 18/41/6 17/42/6
f 19/43/4 23/36/4 21/40/4 17/44/4
f 28/45/6 27/37/6 36/46/6 29/47/6
f 22/39/3 26/38/3 32/48/3 33/49/3
f 27/37/1 28/45/1 25/50/1 26/38/1
f 31/51/1 30/52/1 29/47/1 36/46/1
f 32/48/1 35/53/1 34/54/1 33/49/1
f 27/37/3 24/35/3 31/51/3 36/46/3
f 20/33/5 28/32/5 29/55/5 30/56/5
f 18/41/6 22/39/6 33/49/6 34/57/6
f 24/35/2 20/33/2 30/56/2 31/51/2
f 26/38/2 25/50/2 35/53/2 32/48/2
f 25/31/5 18/30/5 34/58/5 35/59/5
f 37/60/5 38/61/5 40/62/5 39/63/5
f 39/63/2 40/62/2 44/64/2 43/65/2
f 43/65/3 44/64/3 42/66/3 41/67/3
f 41/67/6 42/66/6 38/68/6 37/69/6
f 39/70/4 43/65/4 41/67/4 37/71/4
f 44/64/1 40/72/1 38/73/1 42/66/1
f 45/74/6 46/75/6 48/76/6 47/77/6
f 47/77/5 48/76/5 52/78/5 51/79/5
f 51/79/2 52/78/2 50/80/2 49/81/2
f 49/81/3 50/80/3 46/82/3 45/83/3
f 47/84/4 51/79/4 49/81/4 45/85/4
f 52/78/1 48/86/1 46/87/1 50/80/1
f 53/88/7 54/89/7 56/90/7 55/91/7
f 55/91/5 56/90/5 60/92/5 59/93/5
f 59/93/8 60/92/8 58/94/8 57/95/8
f 57/95/3 58/94/3 54/96/3 53/97/3
f 55/98/4 59/93/4 57/95/4 53/99/4
f 60/92/1 56/100/1 54/101/1 58/94/1
f 61/102/7 62/103/7 64/104/7 63/105/7
f 63/105/5 64/104/5 68/106/5 67/107/5
f 67/107/8 68/106/8 66/108/8 65/109/8
f 65/109/3 66/108/3 62/110/3 61/111/3
f 63/112/4 67/107/4 65/109/4 61/113/4
f 68/106/1 64/114/1 62/115/1 66/108/1
usemtl Material.001
f 69/116/1 77/117/1 73/118/1 75/119/1 71/120/1
f 72/121/2 71/120/2 75/122/2 76/123/2
f 76/124/3 75/125/3 73/126/3 74/127/3
f 74/128/4 78/129/4 70/130/4 72/121/4 76/131/4
f 70/130/5 69/116/5 71/120/5 72/121/5
f 74/127/3 73/126/3 81/132/3 80/133/3
f 78/134/6 77/135/6 69/116/6 70/130/6
f 80/133/6 81/132/6 82/136/6 79/137/6
f 77/135/9 78/134/9 84/138/9 83/139/9
f 78/129/4 74/128/4 80/140/4 79/141/4 84/142/4
f 73/118/1 77/117/1 83/143/1 82/144/1 81/145/1
f 88/146/9 87/147/9 85/148/9 86/149/9
f 79/137/6 82/136/6 86/149/6 85/148/6
f 83/139/2 84/138/2 87/147/2 88/146/2
f 82/144/1 83/143/1 88/150/1 86/151/1
f 84/142/4 79/141/4 85/152/4 87/153/4
f 89/154/10 90/155/10 92/156/10 91/157/10
f 91/157/2 92/156/2 96/158/2 95/159/2
f 95/159/11 96/158/11 94/160/11 93/161/11
f 93/161/6 94/160/6 90/162/6 89/163/6
f 91/164/12 95/159/12 93/161/12 89/165/12
f 96/158/13 92/166/13 90/167/13 94/160/13
f 97/168/2 98/169/2 100/170/2 99/171/2
f 99/171/3 100/170/3 104/172/3 103/173/3
f 103/173/6 104/172/6 102/174/6 101/175/6
f 101/175/5 102/174/5 98/176/5 97/177/5
f 99/178/4 103/173/4 101/175/4 97/179/4
f 104/172/1 100/180/1 98/181/1 102/174/1
usemtl Material.003
f 105/182/1 109/183/1 111/184/1 107/185/1
f 108/186/14 107/185/14 111/187/14 112/188/14
f 112/189/15 111/190/15 109/191/15 110/192/15
f 110/193/16 106/194/16 108/186/16 112/195/16
f 106/194/5 105/182/5 107/185/5 108/186/5
f 110/192/6 109/191/6 105/182/6 106/194/6
usemtl Material.004
f 113/196/1 117/197/1 119/198/1 115/199/1
f 116/200/2 115/199/2 119/201/2 120/202/2
f 120/203/17 119/204/17 117/205/17 118/206/17
f 118/207/18 114/208/18 116/200/18 120/209/18
f 114/208/5 113/196/5 115/199/5 116/200/5
f 118/206/19 117/205/19 113/196/19 114/208/19
usemtl Material.005
f 121/210/1 123/211/1 125/212/1 122/213/1
f 112/214/20 122/213/20 125/215/20 126/216/20
f 126/217/3 125/218/3 123/219/3 124/220/3
f 124/221/21 118/222/21 112/214/21 126/223/21
f 118/222/22 121/210/22 122/213/22 112/214/22
f 124/220/6 123/219/6 121/210/6 118/222/6
usemtl Material.006
f 127/224/1 131/225/1 133/226/1 129/227/1
f 130/228/2 129/227/2 133/229/2 134/230/2
f 134/231/3 133/232/3 131/233/3 132/234/3
f 132/235/4 128/236/4 130/228/4 134/237/4
f 128/236/5 127/224/5 129/227/5 130/228/5
f 132/234/6 131/233/6 127/224/6 128/236/6
usemtl Material.007
f 135/238/1 139/239/1 141/240/1 137/241/1
f 138/242/2 137/241/2 141/243/2 142/244/2
f 142/245/23 141/246/23 139/247/23 140/248/23
f 140/249/4 136/250/4 138/242/4 142/251/4
f 136/250/5 135/238/5 137/241/5 138/242/5
f 140/248/24 139/247/24 135/238/24 136/250/24
usemtl Material.008
f 143/252/1 145/253/1 147/254/1 139/255/1
f 140/256/25 139/255/25 147/257/25 148/258/25
f 148/259/6 147/260/6 145/261/6 146/262/6
f 146/263/4 144/264/4 140/256/4 148/265/4
f 144/264/26 143/252/26 139/255/26 140/256/26
f 146/262/5 145/261/5 143/252/5 144/264/5
usemtl Material.009
f 149/266/27 153/267/27 155/268/27 151/269/27
f 152/270/28 151/269/28 155/271/28 156/272/28
f 156/273/3 155/274/3 153/275/3 154/276/3
f 154/277/29 150/278/29 152/270/29 156/279/29
f 150/278/5 149/266/5 151/269/5 152/270/5
f 154/276/30 153/275/30 149/266/30 150/278/30
usemtl Material.010
f 157/280/31 161/281/31 163/282/31 159/283/31
f 160/284/32 159/283/32 163/285/32 164/286/32
f 164/287/3 163/288/3 161/289/3 162/290/3
f 162/291/33 158/292/33 160/284/33 164/293/33
f 158/292/5 157/280/5 159/283/5 160/284/5
f 162/290/30 161/289/30 157/280/30 158/292/30
usemtl Material.011
f 165/294/1 169/295/1 171/296/1 167/297/1
f 168/298/3 167/297/3 171/299/3 172/300/3
f 172/301/6 171/302/6 169/303/6 170/304/6
f 170/305/4 166/306/4 168/298/4 172/307/4
f 166/306/2 165/294/2 167/297/2 168/298/2
f 170/304/5 169/303/5 165/294/5 166/306/5
