# Blender v2.82 (sub 7) OBJ File: 'building_2.blend'
# www.blender.org
mtllib building_2.mtl
o Cube
v 7.076436 -0.292319 -5.655538
v 7.076436 0.292319 -5.655538
v 7.076436 -0.292319 5.655538
v 7.076436 0.292319 5.655538
v -7.076436 -0.292319 -5.655538
v -7.076436 0.292319 -5.655538
v -7.076436 -0.292319 5.655538
v -7.076436 0.292319 5.655538
vt 0.625000 0.500000
vt 0.625000 0.750000
vt 0.875000 0.750000
vt 0.875000 0.500000
vt 0.375000 0.750000
vt 0.375000 1.000000
vt 0.625000 1.000000
vt 0.375000 0.000000
vt 0.375000 0.250000
vt 0.625000 0.250000
vt 0.625000 0.000000
vt 0.125000 0.500000
vt 0.125000 0.750000
vt 0.375000 0.500000
vn 0.0000 -1.0000 0.0000
vn 0.0000 0.0000 1.0000
vn -1.0000 0.0000 0.0000
vn 0.0000 1.0000 0.0000
vn 1.0000 0.0000 0.0000
vn 0.0000 0.0000 -1.0000
usemtl Material
s off
f 1/1/1 3/2/1 7/3/1 5/4/1
f 4/5/2 8/6/2 7/7/2 3/2/2
f 8/8/3 6/9/3 5/10/3 7/11/3
f 6/12/4 8/13/4 4/5/4 2/14/4
f 2/14/5 4/5/5 3/2/5 1/1/5
f 6/9/6 2/14/6 1/1/6 5/10/6
o Cube.001
v -1.000000 0.170341 5.549454
v -1.000000 0.303663 5.563778
v -1.000000 -0.366608 10.547091
v -1.000000 -0.233286 10.561415
v 1.000000 0.170341 5.549454
v 1.000000 0.303663 5.563778
v 1.000000 -0.366608 10.547091
v 1.000000 -0.233286 10.561415
vt 0.375000 0.000000
vt 0.375000 0.250000
vt 0.625000 0.250000
vt 0.625000 0.000000
vt 0.375000 0.500000
vt 0.625000 0.500000
vt 0.375000 0.750000
vt 0.625000 0.750000
vt 0.375000 1.000000
vt 0.625000 1.000000
vt 0.125000 0.500000
vt 0.125000 0.750000
vt 0.875000 0.750000
vt 0.875000 0.500000
vn -1.0000 0.0000 0.0000
vn 0.0000 -0.1068 0.9943
vn 1.0000 0.0000 0.0000
vn 0.0000 0.1068 -0.9943
vn 0.0000 -0.9943 -0.1068
vn 0.0000 0.9943 0.1068
usemtl None
s off
f 9/15/7 11/16/7 12/17/7 10/18/7
f 11/16/8 15/19/8 16/20/8 12/17/8
f 15/19/9 13/21/9 14/22/9 16/20/9
f 13/21/10 9/23/10 10/24/10 14/22/10
f 11/25/11 9/26/11 13/21/11 15/19/11
f 16/20/12 14/22/12 10/27/12 12/28/12
